# xmcd
# 
# Track frame offsets:
#     150
#     34074
#     69366
#     92026
#     96873
#     127320
#     156292
#     178679
#     200276
#     223898
# 
# Disc length: 3059
# 
# Revision: 0
# Processed by: cddbd v1.5.2PL0 Copyright (c) Steve Scherf et al.
# Submitted via: fre:ac v1.0.27
# 
DISCID=910bf10a
DTITLE=Nils Petter Molvær - Solid Ether
DYEAR=2000
DGENRE=NuJazz
TTITLE0=Dead Indeed
TTITLE1=Vilderness 1
TTITLE2=Kakonita
TTITLE3=Merciful 1
TTITLE4=Ligotage
TTITLE5=Trip
TTITLE6=Vilderness 2
TTITLE7=Tragamar
TTITLE8=Solid Ether
TTITLE9=Merciful 2
EXTD=YEAR: 2000
EXTT0=
EXTT1=
EXTT2=
EXTT3=
EXTT4=
EXTT5=
EXTT6=
EXTT7=
EXTT8=
EXTT9=
PLAYORDER=
